# xmcd CD database file
#
# Track frame offsets:
#	150
#	7170
#	28926
#	32392
#	51241
#	83069
#	88762
#	99792
#	106654
#	121676
#	147450
#	155259
#	179100
#	226647
#	247829
#
# Disc length: 3657 seconds
#
# Revision: 0
# Processed by: cddbd v1.5.2PL0 Copyright (c) Steve Scherf et al.
# Submitted via: CDex 1.51
#
DISCID=ae0e470f
DTITLE=Iasos - Inter-Dimensional Music
DYEAR=1975
DGENRE=New Age
TTITLE0=Libra Sunrise
TTITLE1=Formentera Sunset Clouds
TTITLE2=I Passion You a Leap of Love-Flame
TTITLE3=Lueena Coast
TTITLE4=Rainbow Canyon
TTITLE5=Lagoon Night
TTITLE6=Siren Shallows
TTITLE7=Aries
TTITLE8=Crystal Petals
TTITLE9=Osiris Bull-Man and Elephant Walk
TTITLE10=Creation
TTITLE11=Cloud Prayer 
TTITLE12=Angel Play
TTITLE13=The Bubble Massage
TTITLE14=Maha-Splendor
EXTD=YEAR: 1975
EXTT0=
EXTT1=
EXTT2=
EXTT3=
EXTT4=
EXTT5=
EXTT6=
EXTT7=
EXTT8=
EXTT9=
EXTT10=
EXTT11=
EXTT12=
EXTT13=
EXTT14=
PLAYORDER=
